<mxfile host="app.diagrams.net" modified="2023-03-08T09:15:47.089Z" agent="5.0 (Macintosh; Intel Mac OS X 10_15_7) AppleWebKit/537.36 (KHTML, like Gecko) Chrome/110.0.0.0 Safari/537.36" etag="1xPelZB-L7NXecu_qnnE" version="21.0.2" type="github">
  <diagram name="Page-1" id="2YBvvXClWsGukQMizWep">
    <mxGraphModel dx="1496" dy="775" grid="1" gridSize="10" guides="1" tooltips="1" connect="1" arrows="1" fold="1" page="1" pageScale="1" pageWidth="850" pageHeight="1100" math="0" shadow="0">
      <root>
        <mxCell id="0" />
        <mxCell id="1" parent="0" />
        <mxCell id="hi3D_tC1tFswLXesbzHT-98" value="策略引擎" style="shape=umlLifeline;perimeter=lifelinePerimeter;whiteSpace=wrap;html=1;container=0;dropTarget=0;collapsible=0;recursiveResize=0;outlineConnect=0;portConstraint=eastwest;newEdgeStyle={&quot;edgeStyle&quot;:&quot;elbowEdgeStyle&quot;,&quot;elbow&quot;:&quot;vertical&quot;,&quot;curved&quot;:0,&quot;rounded&quot;:0};" vertex="1" parent="1">
          <mxGeometry x="500" y="40" width="100" height="1000" as="geometry" />
        </mxCell>
        <mxCell id="hi3D_tC1tFswLXesbzHT-99" value="" style="html=1;points=[];perimeter=orthogonalPerimeter;outlineConnect=0;targetShapes=umlLifeline;portConstraint=eastwest;newEdgeStyle={&quot;edgeStyle&quot;:&quot;elbowEdgeStyle&quot;,&quot;elbow&quot;:&quot;vertical&quot;,&quot;curved&quot;:0,&quot;rounded&quot;:0};" vertex="1" parent="hi3D_tC1tFswLXesbzHT-98">
          <mxGeometry x="45" y="70" width="10" height="70" as="geometry" />
        </mxCell>
        <mxCell id="hi3D_tC1tFswLXesbzHT-106" value="" style="html=1;points=[];perimeter=orthogonalPerimeter;outlineConnect=0;targetShapes=umlLifeline;portConstraint=eastwest;newEdgeStyle={&quot;edgeStyle&quot;:&quot;elbowEdgeStyle&quot;,&quot;elbow&quot;:&quot;vertical&quot;,&quot;curved&quot;:0,&quot;rounded&quot;:0};" vertex="1" parent="hi3D_tC1tFswLXesbzHT-98">
          <mxGeometry x="45" y="230" width="10" height="90" as="geometry" />
        </mxCell>
        <mxCell id="hi3D_tC1tFswLXesbzHT-119" value="" style="html=1;points=[];perimeter=orthogonalPerimeter;outlineConnect=0;targetShapes=umlLifeline;portConstraint=eastwest;newEdgeStyle={&quot;edgeStyle&quot;:&quot;elbowEdgeStyle&quot;,&quot;elbow&quot;:&quot;vertical&quot;,&quot;curved&quot;:0,&quot;rounded&quot;:0};" vertex="1" parent="hi3D_tC1tFswLXesbzHT-98">
          <mxGeometry x="49" y="272" width="10" height="38" as="geometry" />
        </mxCell>
        <mxCell id="hi3D_tC1tFswLXesbzHT-120" value="通过上次拦截错误码获取结果链接" style="html=1;verticalAlign=bottom;endArrow=block;edgeStyle=elbowEdgeStyle;elbow=vertical;curved=0;rounded=0;dashed=1;" edge="1" parent="hi3D_tC1tFswLXesbzHT-98" source="hi3D_tC1tFswLXesbzHT-119" target="hi3D_tC1tFswLXesbzHT-119">
          <mxGeometry width="80" relative="1" as="geometry">
            <mxPoint x="255" y="267" as="sourcePoint" />
            <mxPoint x="65" y="277" as="targetPoint" />
            <Array as="points">
              <mxPoint x="200" y="291" />
            </Array>
          </mxGeometry>
        </mxCell>
        <mxCell id="hi3D_tC1tFswLXesbzHT-137" value="" style="html=1;points=[];perimeter=orthogonalPerimeter;outlineConnect=0;targetShapes=umlLifeline;portConstraint=eastwest;newEdgeStyle={&quot;edgeStyle&quot;:&quot;elbowEdgeStyle&quot;,&quot;elbow&quot;:&quot;vertical&quot;,&quot;curved&quot;:0,&quot;rounded&quot;:0};" vertex="1" parent="hi3D_tC1tFswLXesbzHT-98">
          <mxGeometry x="45" y="340" width="10" height="70" as="geometry" />
        </mxCell>
        <mxCell id="hi3D_tC1tFswLXesbzHT-142" value="" style="html=1;points=[];perimeter=orthogonalPerimeter;outlineConnect=0;targetShapes=umlLifeline;portConstraint=eastwest;newEdgeStyle={&quot;edgeStyle&quot;:&quot;elbowEdgeStyle&quot;,&quot;elbow&quot;:&quot;vertical&quot;,&quot;curved&quot;:0,&quot;rounded&quot;:0};" vertex="1" parent="hi3D_tC1tFswLXesbzHT-98">
          <mxGeometry x="45" y="420" width="10" height="70" as="geometry" />
        </mxCell>
        <mxCell id="hi3D_tC1tFswLXesbzHT-144" value="返回人脸信息" style="html=1;verticalAlign=bottom;endArrow=block;edgeStyle=elbowEdgeStyle;elbow=horizontal;curved=0;rounded=0;" edge="1" parent="hi3D_tC1tFswLXesbzHT-98" source="hi3D_tC1tFswLXesbzHT-142">
          <mxGeometry relative="1" as="geometry">
            <mxPoint x="40" y="470" as="sourcePoint" />
            <Array as="points">
              <mxPoint x="-55" y="470" />
              <mxPoint x="-95" y="620" />
              <mxPoint x="-315" y="430" />
            </Array>
            <mxPoint x="-105" y="470" as="targetPoint" />
          </mxGeometry>
        </mxCell>
        <mxCell id="hi3D_tC1tFswLXesbzHT-143" value="&amp;nbsp; &amp;nbsp; &amp;nbsp; &amp;nbsp; &amp;nbsp; &amp;nbsp; &amp;nbsp; &amp;nbsp; 4.face_recognition_real_name_verify" style="html=1;verticalAlign=bottom;endArrow=block;edgeStyle=elbowEdgeStyle;elbow=vertical;curved=0;rounded=0;" edge="1" parent="hi3D_tC1tFswLXesbzHT-98" target="hi3D_tC1tFswLXesbzHT-142">
          <mxGeometry width="80" relative="1" as="geometry">
            <mxPoint x="-105" y="440" as="sourcePoint" />
            <mxPoint x="40" y="430" as="targetPoint" />
            <Array as="points">
              <mxPoint x="-20" y="440" />
              <mxPoint x="5" y="430" />
            </Array>
          </mxGeometry>
        </mxCell>
        <mxCell id="hi3D_tC1tFswLXesbzHT-151" value="" style="html=1;points=[];perimeter=orthogonalPerimeter;outlineConnect=0;targetShapes=umlLifeline;portConstraint=eastwest;newEdgeStyle={&quot;edgeStyle&quot;:&quot;elbowEdgeStyle&quot;,&quot;elbow&quot;:&quot;vertical&quot;,&quot;curved&quot;:0,&quot;rounded&quot;:0};" vertex="1" parent="hi3D_tC1tFswLXesbzHT-98">
          <mxGeometry x="45" y="550" width="10" height="70" as="geometry" />
        </mxCell>
        <mxCell id="hi3D_tC1tFswLXesbzHT-164" value="" style="html=1;points=[];perimeter=orthogonalPerimeter;outlineConnect=0;targetShapes=umlLifeline;portConstraint=eastwest;newEdgeStyle={&quot;edgeStyle&quot;:&quot;elbowEdgeStyle&quot;,&quot;elbow&quot;:&quot;vertical&quot;,&quot;curved&quot;:0,&quot;rounded&quot;:0};" vertex="1" parent="hi3D_tC1tFswLXesbzHT-98">
          <mxGeometry x="45" y="670" width="10" height="70" as="geometry" />
        </mxCell>
        <mxCell id="aM9ryv3xv72pqoxQDRHE-1" value="用户" style="shape=umlLifeline;perimeter=lifelinePerimeter;whiteSpace=wrap;html=1;container=0;dropTarget=0;collapsible=0;recursiveResize=0;outlineConnect=0;portConstraint=eastwest;newEdgeStyle={&quot;edgeStyle&quot;:&quot;elbowEdgeStyle&quot;,&quot;elbow&quot;:&quot;vertical&quot;,&quot;curved&quot;:0,&quot;rounded&quot;:0};" parent="1" vertex="1">
          <mxGeometry x="50" y="40" width="100" height="1000" as="geometry" />
        </mxCell>
        <mxCell id="aM9ryv3xv72pqoxQDRHE-2" value="" style="html=1;points=[];perimeter=orthogonalPerimeter;outlineConnect=0;targetShapes=umlLifeline;portConstraint=eastwest;newEdgeStyle={&quot;edgeStyle&quot;:&quot;elbowEdgeStyle&quot;,&quot;elbow&quot;:&quot;vertical&quot;,&quot;curved&quot;:0,&quot;rounded&quot;:0};" parent="aM9ryv3xv72pqoxQDRHE-1" vertex="1">
          <mxGeometry x="45" y="70" width="10" height="110" as="geometry" />
        </mxCell>
        <mxCell id="aM9ryv3xv72pqoxQDRHE-5" value="聚合" style="shape=umlLifeline;perimeter=lifelinePerimeter;whiteSpace=wrap;html=1;container=0;dropTarget=0;collapsible=0;recursiveResize=0;outlineConnect=0;portConstraint=eastwest;newEdgeStyle={&quot;edgeStyle&quot;:&quot;elbowEdgeStyle&quot;,&quot;elbow&quot;:&quot;vertical&quot;,&quot;curved&quot;:0,&quot;rounded&quot;:0};" parent="1" vertex="1">
          <mxGeometry x="210" y="40" width="100" height="1000" as="geometry" />
        </mxCell>
        <mxCell id="aM9ryv3xv72pqoxQDRHE-6" value="" style="html=1;points=[];perimeter=orthogonalPerimeter;outlineConnect=0;targetShapes=umlLifeline;portConstraint=eastwest;newEdgeStyle={&quot;edgeStyle&quot;:&quot;elbowEdgeStyle&quot;,&quot;elbow&quot;:&quot;vertical&quot;,&quot;curved&quot;:0,&quot;rounded&quot;:0};" parent="aM9ryv3xv72pqoxQDRHE-5" vertex="1">
          <mxGeometry x="45" y="80" width="10" height="90" as="geometry" />
        </mxCell>
        <mxCell id="hi3D_tC1tFswLXesbzHT-102" value="" style="html=1;points=[];perimeter=orthogonalPerimeter;outlineConnect=0;targetShapes=umlLifeline;portConstraint=eastwest;newEdgeStyle={&quot;edgeStyle&quot;:&quot;elbowEdgeStyle&quot;,&quot;elbow&quot;:&quot;vertical&quot;,&quot;curved&quot;:0,&quot;rounded&quot;:0};" vertex="1" parent="aM9ryv3xv72pqoxQDRHE-5">
          <mxGeometry x="-115" y="230" width="10" height="580" as="geometry" />
        </mxCell>
        <mxCell id="hi3D_tC1tFswLXesbzHT-171" value="" style="html=1;points=[];perimeter=orthogonalPerimeter;outlineConnect=0;targetShapes=umlLifeline;portConstraint=eastwest;newEdgeStyle={&quot;edgeStyle&quot;:&quot;elbowEdgeStyle&quot;,&quot;elbow&quot;:&quot;vertical&quot;,&quot;curved&quot;:0,&quot;rounded&quot;:0};" vertex="1" parent="aM9ryv3xv72pqoxQDRHE-5">
          <mxGeometry x="335" y="850" width="10" height="70" as="geometry" />
        </mxCell>
        <mxCell id="hi3D_tC1tFswLXesbzHT-172" value="" style="html=1;points=[];perimeter=orthogonalPerimeter;outlineConnect=0;targetShapes=umlLifeline;portConstraint=eastwest;newEdgeStyle={&quot;edgeStyle&quot;:&quot;elbowEdgeStyle&quot;,&quot;elbow&quot;:&quot;vertical&quot;,&quot;curved&quot;:0,&quot;rounded&quot;:0};" vertex="1" parent="aM9ryv3xv72pqoxQDRHE-5">
          <mxGeometry x="-115" y="850" width="10" height="110" as="geometry" />
        </mxCell>
        <mxCell id="hi3D_tC1tFswLXesbzHT-173" value="" style="html=1;points=[];perimeter=orthogonalPerimeter;outlineConnect=0;targetShapes=umlLifeline;portConstraint=eastwest;newEdgeStyle={&quot;edgeStyle&quot;:&quot;elbowEdgeStyle&quot;,&quot;elbow&quot;:&quot;vertical&quot;,&quot;curved&quot;:0,&quot;rounded&quot;:0};" vertex="1" parent="aM9ryv3xv72pqoxQDRHE-5">
          <mxGeometry x="45" y="860" width="10" height="90" as="geometry" />
        </mxCell>
        <mxCell id="hi3D_tC1tFswLXesbzHT-174" value="发起支付" style="html=1;verticalAlign=bottom;endArrow=block;edgeStyle=elbowEdgeStyle;elbow=horizontal;curved=0;rounded=0;" edge="1" parent="aM9ryv3xv72pqoxQDRHE-5" source="hi3D_tC1tFswLXesbzHT-172" target="hi3D_tC1tFswLXesbzHT-173">
          <mxGeometry relative="1" as="geometry">
            <mxPoint x="-15" y="870" as="sourcePoint" />
            <Array as="points">
              <mxPoint x="-30" y="860" />
            </Array>
          </mxGeometry>
        </mxCell>
        <mxCell id="hi3D_tC1tFswLXesbzHT-175" value="" style="html=1;verticalAlign=bottom;endArrow=open;dashed=1;endSize=8;edgeStyle=elbowEdgeStyle;elbow=vertical;curved=0;rounded=0;" edge="1" parent="aM9ryv3xv72pqoxQDRHE-5" source="hi3D_tC1tFswLXesbzHT-173" target="hi3D_tC1tFswLXesbzHT-172">
          <mxGeometry relative="1" as="geometry">
            <mxPoint x="-15" y="945" as="targetPoint" />
            <Array as="points">
              <mxPoint x="30" y="920" />
              <mxPoint x="-20" y="1020" />
            </Array>
          </mxGeometry>
        </mxCell>
        <mxCell id="hi3D_tC1tFswLXesbzHT-176" value="7. 聚合协议问询：&lt;br&gt;如wx_business_pay_verify" style="html=1;verticalAlign=bottom;endArrow=block;edgeStyle=elbowEdgeStyle;elbow=vertical;curved=0;rounded=0;" edge="1" parent="aM9ryv3xv72pqoxQDRHE-5" target="hi3D_tC1tFswLXesbzHT-171">
          <mxGeometry width="80" relative="1" as="geometry">
            <mxPoint x="55" y="867" as="sourcePoint" />
            <mxPoint x="300" y="867" as="targetPoint" />
          </mxGeometry>
        </mxCell>
        <mxCell id="hi3D_tC1tFswLXesbzHT-177" value="返回拦截/放过" style="html=1;verticalAlign=bottom;endArrow=block;edgeStyle=elbowEdgeStyle;elbow=horizontal;curved=0;rounded=0;" edge="1" parent="aM9ryv3xv72pqoxQDRHE-5" source="hi3D_tC1tFswLXesbzHT-171">
          <mxGeometry relative="1" as="geometry">
            <mxPoint x="-95" y="870" as="sourcePoint" />
            <Array as="points">
              <mxPoint x="180" y="900" />
            </Array>
            <mxPoint x="50" y="900" as="targetPoint" />
          </mxGeometry>
        </mxCell>
        <mxCell id="aM9ryv3xv72pqoxQDRHE-7" value="发起支付" style="html=1;verticalAlign=bottom;endArrow=block;edgeStyle=elbowEdgeStyle;elbow=horizontal;curved=0;rounded=0;" parent="1" source="aM9ryv3xv72pqoxQDRHE-2" target="aM9ryv3xv72pqoxQDRHE-6" edge="1">
          <mxGeometry relative="1" as="geometry">
            <mxPoint x="195" y="130" as="sourcePoint" />
            <Array as="points">
              <mxPoint x="180" y="120" />
            </Array>
          </mxGeometry>
        </mxCell>
        <mxCell id="aM9ryv3xv72pqoxQDRHE-8" value="" style="html=1;verticalAlign=bottom;endArrow=open;dashed=1;endSize=8;edgeStyle=elbowEdgeStyle;elbow=vertical;curved=0;rounded=0;" parent="1" source="aM9ryv3xv72pqoxQDRHE-6" target="aM9ryv3xv72pqoxQDRHE-2" edge="1">
          <mxGeometry relative="1" as="geometry">
            <mxPoint x="195" y="205" as="targetPoint" />
            <Array as="points">
              <mxPoint x="240" y="180" />
              <mxPoint x="190" y="280" />
            </Array>
          </mxGeometry>
        </mxCell>
        <mxCell id="hi3D_tC1tFswLXesbzHT-90" value="CGI" style="shape=umlLifeline;perimeter=lifelinePerimeter;whiteSpace=wrap;html=1;container=0;dropTarget=0;collapsible=0;recursiveResize=0;outlineConnect=0;portConstraint=eastwest;newEdgeStyle={&quot;edgeStyle&quot;:&quot;elbowEdgeStyle&quot;,&quot;elbow&quot;:&quot;vertical&quot;,&quot;curved&quot;:0,&quot;rounded&quot;:0};" vertex="1" parent="1">
          <mxGeometry x="340" y="40" width="100" height="1000" as="geometry" />
        </mxCell>
        <mxCell id="hi3D_tC1tFswLXesbzHT-103" value="" style="html=1;points=[];perimeter=orthogonalPerimeter;outlineConnect=0;targetShapes=umlLifeline;portConstraint=eastwest;newEdgeStyle={&quot;edgeStyle&quot;:&quot;elbowEdgeStyle&quot;,&quot;elbow&quot;:&quot;vertical&quot;,&quot;curved&quot;:0,&quot;rounded&quot;:0};" vertex="1" parent="hi3D_tC1tFswLXesbzHT-90">
          <mxGeometry x="45" y="230" width="10" height="580" as="geometry" />
        </mxCell>
        <mxCell id="hi3D_tC1tFswLXesbzHT-100" value="1. 聚合协议问询：&lt;br&gt;如wx_business_pay_verify" style="html=1;verticalAlign=bottom;endArrow=block;edgeStyle=elbowEdgeStyle;elbow=vertical;curved=0;rounded=0;" edge="1" parent="1" target="hi3D_tC1tFswLXesbzHT-99">
          <mxGeometry width="80" relative="1" as="geometry">
            <mxPoint x="265" y="127" as="sourcePoint" />
            <mxPoint x="510" y="127" as="targetPoint" />
          </mxGeometry>
        </mxCell>
        <mxCell id="hi3D_tC1tFswLXesbzHT-101" value="返回拦截/放过" style="html=1;verticalAlign=bottom;endArrow=block;edgeStyle=elbowEdgeStyle;elbow=horizontal;curved=0;rounded=0;" edge="1" parent="1" source="hi3D_tC1tFswLXesbzHT-99">
          <mxGeometry relative="1" as="geometry">
            <mxPoint x="115" y="130" as="sourcePoint" />
            <Array as="points">
              <mxPoint x="390" y="160" />
            </Array>
            <mxPoint x="260" y="160" as="targetPoint" />
          </mxGeometry>
        </mxCell>
        <mxCell id="hi3D_tC1tFswLXesbzHT-104" value="准备解脱&amp;nbsp;" style="html=1;verticalAlign=bottom;endArrow=block;edgeStyle=elbowEdgeStyle;elbow=horizontal;curved=0;rounded=0;" edge="1" parent="1" source="hi3D_tC1tFswLXesbzHT-102" target="hi3D_tC1tFswLXesbzHT-103">
          <mxGeometry relative="1" as="geometry">
            <mxPoint x="195" y="290" as="sourcePoint" />
            <Array as="points">
              <mxPoint x="180" y="280" />
            </Array>
          </mxGeometry>
        </mxCell>
        <mxCell id="hi3D_tC1tFswLXesbzHT-105" value="" style="html=1;verticalAlign=bottom;endArrow=open;dashed=1;endSize=8;edgeStyle=elbowEdgeStyle;elbow=vertical;curved=0;rounded=0;" edge="1" parent="1" target="hi3D_tC1tFswLXesbzHT-102">
          <mxGeometry relative="1" as="geometry">
            <mxPoint x="110" y="490" as="targetPoint" />
            <Array as="points">
              <mxPoint x="270" y="350" />
              <mxPoint x="260" y="490" />
              <mxPoint x="190" y="483" />
            </Array>
            <mxPoint x="385" y="353" as="sourcePoint" />
          </mxGeometry>
        </mxCell>
        <mxCell id="hi3D_tC1tFswLXesbzHT-109" value="返回解脱url" style="html=1;verticalAlign=bottom;endArrow=block;edgeStyle=elbowEdgeStyle;elbow=horizontal;curved=0;rounded=0;" edge="1" parent="1" source="hi3D_tC1tFswLXesbzHT-106">
          <mxGeometry relative="1" as="geometry">
            <mxPoint x="530" y="336" as="sourcePoint" />
            <Array as="points">
              <mxPoint x="450" y="336" />
              <mxPoint x="410" y="486" />
              <mxPoint x="190" y="296" />
            </Array>
            <mxPoint x="395" y="336" as="targetPoint" />
          </mxGeometry>
        </mxCell>
        <mxCell id="hi3D_tC1tFswLXesbzHT-111" value="2.risk_integrate_limit_verify" style="html=1;verticalAlign=bottom;endArrow=block;edgeStyle=elbowEdgeStyle;elbow=vertical;curved=0;rounded=0;" edge="1" parent="1" target="hi3D_tC1tFswLXesbzHT-106">
          <mxGeometry width="80" relative="1" as="geometry">
            <mxPoint x="395" y="284" as="sourcePoint" />
            <mxPoint x="540" y="284" as="targetPoint" />
            <Array as="points">
              <mxPoint x="510" y="284" />
            </Array>
          </mxGeometry>
        </mxCell>
        <mxCell id="hi3D_tC1tFswLXesbzHT-112" value="管控" style="shape=umlLifeline;perimeter=lifelinePerimeter;whiteSpace=wrap;html=1;container=0;dropTarget=0;collapsible=0;recursiveResize=0;outlineConnect=0;portConstraint=eastwest;newEdgeStyle={&quot;edgeStyle&quot;:&quot;elbowEdgeStyle&quot;,&quot;elbow&quot;:&quot;vertical&quot;,&quot;curved&quot;:0,&quot;rounded&quot;:0};" vertex="1" parent="1">
          <mxGeometry x="700" y="40" width="100" height="1000" as="geometry" />
        </mxCell>
        <mxCell id="hi3D_tC1tFswLXesbzHT-114" value="" style="html=1;points=[];perimeter=orthogonalPerimeter;outlineConnect=0;targetShapes=umlLifeline;portConstraint=eastwest;newEdgeStyle={&quot;edgeStyle&quot;:&quot;elbowEdgeStyle&quot;,&quot;elbow&quot;:&quot;vertical&quot;,&quot;curved&quot;:0,&quot;rounded&quot;:0};" vertex="1" parent="hi3D_tC1tFswLXesbzHT-112">
          <mxGeometry x="45" y="230" width="10" height="40" as="geometry" />
        </mxCell>
        <mxCell id="hi3D_tC1tFswLXesbzHT-115" value="udp查询管控信息" style="html=1;verticalAlign=bottom;endArrow=block;edgeStyle=elbowEdgeStyle;elbow=vertical;curved=0;rounded=0;" edge="1" parent="1">
          <mxGeometry width="80" relative="1" as="geometry">
            <mxPoint x="555" y="288" as="sourcePoint" />
            <mxPoint x="745" y="288" as="targetPoint" />
          </mxGeometry>
        </mxCell>
        <mxCell id="hi3D_tC1tFswLXesbzHT-116" value="返回" style="html=1;verticalAlign=bottom;endArrow=block;edgeStyle=elbowEdgeStyle;elbow=vertical;curved=0;rounded=0;dashed=1;" edge="1" parent="1" target="hi3D_tC1tFswLXesbzHT-106">
          <mxGeometry width="80" relative="1" as="geometry">
            <mxPoint x="745" y="297" as="sourcePoint" />
            <mxPoint x="555" y="297" as="targetPoint" />
            <Array as="points">
              <mxPoint x="750" y="307" />
            </Array>
          </mxGeometry>
        </mxCell>
        <mxCell id="hi3D_tC1tFswLXesbzHT-117" value="优图" style="shape=umlLifeline;perimeter=lifelinePerimeter;whiteSpace=wrap;html=1;container=0;dropTarget=0;collapsible=0;recursiveResize=0;outlineConnect=0;portConstraint=eastwest;newEdgeStyle={&quot;edgeStyle&quot;:&quot;elbowEdgeStyle&quot;,&quot;elbow&quot;:&quot;vertical&quot;,&quot;curved&quot;:0,&quot;rounded&quot;:0};" vertex="1" parent="1">
          <mxGeometry x="860" y="40" width="100" height="1000" as="geometry" />
        </mxCell>
        <mxCell id="hi3D_tC1tFswLXesbzHT-146" value="" style="html=1;points=[];perimeter=orthogonalPerimeter;outlineConnect=0;targetShapes=umlLifeline;portConstraint=eastwest;newEdgeStyle={&quot;edgeStyle&quot;:&quot;elbowEdgeStyle&quot;,&quot;elbow&quot;:&quot;vertical&quot;,&quot;curved&quot;:0,&quot;rounded&quot;:0};" vertex="1" parent="hi3D_tC1tFswLXesbzHT-117">
          <mxGeometry x="45" y="480" width="10" height="70" as="geometry" />
        </mxCell>
        <mxCell id="hi3D_tC1tFswLXesbzHT-138" value="3.wx_self_exonerate_info_verify&lt;br&gt;" style="html=1;verticalAlign=bottom;endArrow=block;edgeStyle=elbowEdgeStyle;elbow=vertical;curved=0;rounded=0;" edge="1" parent="1" source="hi3D_tC1tFswLXesbzHT-103" target="hi3D_tC1tFswLXesbzHT-137">
          <mxGeometry width="80" relative="1" as="geometry">
            <mxPoint x="390" y="390" as="sourcePoint" />
            <mxPoint x="540" y="390" as="targetPoint" />
            <Array as="points">
              <mxPoint x="480" y="400" />
              <mxPoint x="505" y="390" />
            </Array>
          </mxGeometry>
        </mxCell>
        <mxCell id="hi3D_tC1tFswLXesbzHT-139" value="发起解脱&amp;nbsp;" style="html=1;verticalAlign=bottom;endArrow=block;edgeStyle=elbowEdgeStyle;elbow=horizontal;curved=0;rounded=0;" edge="1" parent="1" source="hi3D_tC1tFswLXesbzHT-102" target="hi3D_tC1tFswLXesbzHT-103">
          <mxGeometry relative="1" as="geometry">
            <mxPoint x="110" y="380" as="sourcePoint" />
            <Array as="points">
              <mxPoint x="185" y="380" />
            </Array>
            <mxPoint x="380" y="380" as="targetPoint" />
          </mxGeometry>
        </mxCell>
        <mxCell id="hi3D_tC1tFswLXesbzHT-140" value="返回页面信息" style="html=1;verticalAlign=bottom;endArrow=block;edgeStyle=elbowEdgeStyle;elbow=horizontal;curved=0;rounded=0;" edge="1" parent="1" source="hi3D_tC1tFswLXesbzHT-137" target="hi3D_tC1tFswLXesbzHT-103">
          <mxGeometry relative="1" as="geometry">
            <mxPoint x="540" y="430" as="sourcePoint" />
            <Array as="points">
              <mxPoint x="445" y="430" />
              <mxPoint x="405" y="580" />
              <mxPoint x="185" y="390" />
            </Array>
            <mxPoint x="400" y="430" as="targetPoint" />
          </mxGeometry>
        </mxCell>
        <mxCell id="hi3D_tC1tFswLXesbzHT-145" value="获取人脸结果" style="html=1;verticalAlign=bottom;endArrow=block;edgeStyle=elbowEdgeStyle;elbow=vertical;curved=0;rounded=0;" edge="1" parent="1" target="hi3D_tC1tFswLXesbzHT-146">
          <mxGeometry width="80" relative="1" as="geometry">
            <mxPoint x="395" y="534" as="sourcePoint" />
            <mxPoint x="905" y="519" as="targetPoint" />
            <Array as="points">
              <mxPoint x="910" y="534" />
            </Array>
          </mxGeometry>
        </mxCell>
        <mxCell id="hi3D_tC1tFswLXesbzHT-147" value="" style="html=1;verticalAlign=bottom;endArrow=block;edgeStyle=elbowEdgeStyle;elbow=horizontal;curved=0;rounded=0;" edge="1" parent="1">
          <mxGeometry relative="1" as="geometry">
            <mxPoint x="905" y="564" as="sourcePoint" />
            <Array as="points">
              <mxPoint x="455" y="564" />
              <mxPoint x="415" y="714" />
              <mxPoint x="195" y="524" />
            </Array>
            <mxPoint x="395.0000000000002" y="564" as="targetPoint" />
          </mxGeometry>
        </mxCell>
        <mxCell id="hi3D_tC1tFswLXesbzHT-152" value="5.face_recognition_result_notify" style="html=1;verticalAlign=bottom;endArrow=block;edgeStyle=elbowEdgeStyle;elbow=vertical;curved=0;rounded=0;" edge="1" parent="1" source="hi3D_tC1tFswLXesbzHT-103" target="hi3D_tC1tFswLXesbzHT-151">
          <mxGeometry width="80" relative="1" as="geometry">
            <mxPoint x="400" y="610" as="sourcePoint" />
            <mxPoint x="540" y="610" as="targetPoint" />
            <Array as="points">
              <mxPoint x="485" y="610" />
              <mxPoint x="510" y="600" />
            </Array>
          </mxGeometry>
        </mxCell>
        <mxCell id="hi3D_tC1tFswLXesbzHT-153" value="DB" style="shape=umlLifeline;perimeter=lifelinePerimeter;whiteSpace=wrap;html=1;container=0;dropTarget=0;collapsible=0;recursiveResize=0;outlineConnect=0;portConstraint=eastwest;newEdgeStyle={&quot;edgeStyle&quot;:&quot;elbowEdgeStyle&quot;,&quot;elbow&quot;:&quot;vertical&quot;,&quot;curved&quot;:0,&quot;rounded&quot;:0};" vertex="1" parent="1">
          <mxGeometry x="1000" y="40" width="100" height="1000" as="geometry" />
        </mxCell>
        <mxCell id="hi3D_tC1tFswLXesbzHT-154" value="" style="html=1;points=[];perimeter=orthogonalPerimeter;outlineConnect=0;targetShapes=umlLifeline;portConstraint=eastwest;newEdgeStyle={&quot;edgeStyle&quot;:&quot;elbowEdgeStyle&quot;,&quot;elbow&quot;:&quot;vertical&quot;,&quot;curved&quot;:0,&quot;rounded&quot;:0};" vertex="1" parent="hi3D_tC1tFswLXesbzHT-153">
          <mxGeometry x="45" y="570" width="10" height="20" as="geometry" />
        </mxCell>
        <mxCell id="hi3D_tC1tFswLXesbzHT-158" value="" style="html=1;points=[];perimeter=orthogonalPerimeter;outlineConnect=0;targetShapes=umlLifeline;portConstraint=eastwest;newEdgeStyle={&quot;edgeStyle&quot;:&quot;elbowEdgeStyle&quot;,&quot;elbow&quot;:&quot;vertical&quot;,&quot;curved&quot;:0,&quot;rounded&quot;:0};" vertex="1" parent="hi3D_tC1tFswLXesbzHT-153">
          <mxGeometry x="45" y="440" width="10" height="30" as="geometry" />
        </mxCell>
        <mxCell id="hi3D_tC1tFswLXesbzHT-167" value="" style="html=1;points=[];perimeter=orthogonalPerimeter;outlineConnect=0;targetShapes=umlLifeline;portConstraint=eastwest;newEdgeStyle={&quot;edgeStyle&quot;:&quot;elbowEdgeStyle&quot;,&quot;elbow&quot;:&quot;vertical&quot;,&quot;curved&quot;:0,&quot;rounded&quot;:0};" vertex="1" parent="hi3D_tC1tFswLXesbzHT-153">
          <mxGeometry x="45" y="680" width="10" height="20" as="geometry" />
        </mxCell>
        <mxCell id="hi3D_tC1tFswLXesbzHT-155" value="CKV" style="shape=umlLifeline;perimeter=lifelinePerimeter;whiteSpace=wrap;html=1;container=0;dropTarget=0;collapsible=0;recursiveResize=0;outlineConnect=0;portConstraint=eastwest;newEdgeStyle={&quot;edgeStyle&quot;:&quot;elbowEdgeStyle&quot;,&quot;elbow&quot;:&quot;vertical&quot;,&quot;curved&quot;:0,&quot;rounded&quot;:0};" vertex="1" parent="1">
          <mxGeometry x="1120" y="40" width="100" height="1000" as="geometry" />
        </mxCell>
        <mxCell id="hi3D_tC1tFswLXesbzHT-156" value="" style="html=1;points=[];perimeter=orthogonalPerimeter;outlineConnect=0;targetShapes=umlLifeline;portConstraint=eastwest;newEdgeStyle={&quot;edgeStyle&quot;:&quot;elbowEdgeStyle&quot;,&quot;elbow&quot;:&quot;vertical&quot;,&quot;curved&quot;:0,&quot;rounded&quot;:0};" vertex="1" parent="hi3D_tC1tFswLXesbzHT-155">
          <mxGeometry x="45" y="580" width="10" height="70" as="geometry" />
        </mxCell>
        <mxCell id="hi3D_tC1tFswLXesbzHT-168" value="" style="html=1;points=[];perimeter=orthogonalPerimeter;outlineConnect=0;targetShapes=umlLifeline;portConstraint=eastwest;newEdgeStyle={&quot;edgeStyle&quot;:&quot;elbowEdgeStyle&quot;,&quot;elbow&quot;:&quot;vertical&quot;,&quot;curved&quot;:0,&quot;rounded&quot;:0};" vertex="1" parent="hi3D_tC1tFswLXesbzHT-155">
          <mxGeometry x="45" y="700" width="10" height="50" as="geometry" />
        </mxCell>
        <mxCell id="hi3D_tC1tFswLXesbzHT-178" value="" style="html=1;points=[];perimeter=orthogonalPerimeter;outlineConnect=0;targetShapes=umlLifeline;portConstraint=eastwest;newEdgeStyle={&quot;edgeStyle&quot;:&quot;elbowEdgeStyle&quot;,&quot;elbow&quot;:&quot;vertical&quot;,&quot;curved&quot;:0,&quot;rounded&quot;:0};" vertex="1" parent="hi3D_tC1tFswLXesbzHT-155">
          <mxGeometry x="45" y="860" width="10" height="50" as="geometry" />
        </mxCell>
        <mxCell id="hi3D_tC1tFswLXesbzHT-159" value="查询人脸数据" style="html=1;verticalAlign=bottom;endArrow=block;edgeStyle=elbowEdgeStyle;elbow=vertical;curved=0;rounded=0;" edge="1" parent="1" source="hi3D_tC1tFswLXesbzHT-142" target="hi3D_tC1tFswLXesbzHT-158">
          <mxGeometry width="80" relative="1" as="geometry">
            <mxPoint x="560" y="486" as="sourcePoint" />
            <mxPoint x="745" y="486" as="targetPoint" />
            <Array as="points">
              <mxPoint x="645" y="486" />
              <mxPoint x="670" y="476" />
            </Array>
          </mxGeometry>
        </mxCell>
        <mxCell id="hi3D_tC1tFswLXesbzHT-160" value="" style="html=1;verticalAlign=bottom;endArrow=open;dashed=1;endSize=8;edgeStyle=elbowEdgeStyle;elbow=vertical;curved=0;rounded=0;" edge="1" parent="1" source="hi3D_tC1tFswLXesbzHT-158" target="hi3D_tC1tFswLXesbzHT-142">
          <mxGeometry relative="1" as="geometry">
            <mxPoint x="570" y="500" as="targetPoint" />
            <Array as="points">
              <mxPoint x="1040" y="500" />
              <mxPoint x="725" y="640" />
              <mxPoint x="655" y="633" />
            </Array>
            <mxPoint x="850" y="503" as="sourcePoint" />
          </mxGeometry>
        </mxCell>
        <mxCell id="hi3D_tC1tFswLXesbzHT-161" value="更新人脸结果信息" style="html=1;verticalAlign=bottom;endArrow=block;edgeStyle=elbowEdgeStyle;elbow=vertical;curved=0;rounded=0;" edge="1" parent="1" source="hi3D_tC1tFswLXesbzHT-151" target="hi3D_tC1tFswLXesbzHT-154">
          <mxGeometry width="80" relative="1" as="geometry">
            <mxPoint x="560" y="620" as="sourcePoint" />
            <mxPoint x="1050" y="620" as="targetPoint" />
            <Array as="points">
              <mxPoint x="650" y="620" />
              <mxPoint x="675" y="610" />
            </Array>
          </mxGeometry>
        </mxCell>
        <mxCell id="hi3D_tC1tFswLXesbzHT-162" value="更新解脱变量, 如16413" style="html=1;verticalAlign=bottom;endArrow=block;edgeStyle=elbowEdgeStyle;elbow=vertical;curved=0;rounded=0;" edge="1" parent="1" source="hi3D_tC1tFswLXesbzHT-151" target="hi3D_tC1tFswLXesbzHT-156">
          <mxGeometry width="80" relative="1" as="geometry">
            <mxPoint x="565" y="630" as="sourcePoint" />
            <mxPoint x="1055" y="630" as="targetPoint" />
            <Array as="points">
              <mxPoint x="1100" y="650" />
              <mxPoint x="660" y="630" />
              <mxPoint x="685" y="620" />
            </Array>
          </mxGeometry>
        </mxCell>
        <mxCell id="hi3D_tC1tFswLXesbzHT-163" value="" style="html=1;verticalAlign=bottom;endArrow=open;dashed=1;endSize=8;edgeStyle=elbowEdgeStyle;elbow=vertical;curved=0;rounded=0;" edge="1" parent="1" source="hi3D_tC1tFswLXesbzHT-103" target="hi3D_tC1tFswLXesbzHT-102">
          <mxGeometry relative="1" as="geometry">
            <mxPoint x="100" y="670" as="targetPoint" />
            <Array as="points">
              <mxPoint x="280" y="690" />
              <mxPoint x="390" y="670" />
              <mxPoint x="255" y="810" />
              <mxPoint x="185" y="803" />
            </Array>
            <mxPoint x="380" y="673" as="sourcePoint" />
          </mxGeometry>
        </mxCell>
        <mxCell id="hi3D_tC1tFswLXesbzHT-165" value="6.&amp;nbsp;fraudc_self_exonerate_verify" style="html=1;verticalAlign=bottom;endArrow=block;edgeStyle=elbowEdgeStyle;elbow=vertical;curved=0;rounded=0;" edge="1" parent="1">
          <mxGeometry width="80" relative="1" as="geometry">
            <mxPoint x="395.0000000000002" y="721" as="sourcePoint" />
            <mxPoint x="545.0000000000002" y="721" as="targetPoint" />
            <Array as="points">
              <mxPoint x="495" y="721" />
              <mxPoint x="520" y="711" />
            </Array>
          </mxGeometry>
        </mxCell>
        <mxCell id="hi3D_tC1tFswLXesbzHT-169" value="更新工具表信息" style="html=1;verticalAlign=bottom;endArrow=block;edgeStyle=elbowEdgeStyle;elbow=vertical;curved=0;rounded=0;" edge="1" parent="1" target="hi3D_tC1tFswLXesbzHT-167" source="hi3D_tC1tFswLXesbzHT-164">
          <mxGeometry width="80" relative="1" as="geometry">
            <mxPoint x="565" y="630" as="sourcePoint" />
            <mxPoint x="1060" y="630" as="targetPoint" />
            <Array as="points">
              <mxPoint x="800" y="730" />
              <mxPoint x="660" y="630" />
              <mxPoint x="685" y="620" />
            </Array>
          </mxGeometry>
        </mxCell>
        <mxCell id="hi3D_tC1tFswLXesbzHT-170" value="更新解脱变量, 如16413" style="html=1;verticalAlign=bottom;endArrow=block;edgeStyle=elbowEdgeStyle;elbow=vertical;curved=0;rounded=0;" edge="1" parent="1" target="hi3D_tC1tFswLXesbzHT-168" source="hi3D_tC1tFswLXesbzHT-164">
          <mxGeometry width="80" relative="1" as="geometry">
            <mxPoint x="565" y="660" as="sourcePoint" />
            <mxPoint x="1065" y="640" as="targetPoint" />
            <Array as="points">
              <mxPoint x="850" y="760" />
              <mxPoint x="670" y="640" />
              <mxPoint x="695" y="630" />
            </Array>
          </mxGeometry>
        </mxCell>
        <mxCell id="hi3D_tC1tFswLXesbzHT-179" value="读取解脱变量" style="html=1;verticalAlign=bottom;endArrow=block;edgeStyle=elbowEdgeStyle;elbow=vertical;curved=0;rounded=0;" edge="1" parent="1" source="hi3D_tC1tFswLXesbzHT-171" target="hi3D_tC1tFswLXesbzHT-178">
          <mxGeometry width="80" relative="1" as="geometry">
            <mxPoint x="565" y="770" as="sourcePoint" />
            <mxPoint x="1175" y="770" as="targetPoint" />
            <Array as="points">
              <mxPoint x="870" y="920" />
              <mxPoint x="680" y="650" />
              <mxPoint x="705" y="640" />
            </Array>
          </mxGeometry>
        </mxCell>
        <mxCell id="hi3D_tC1tFswLXesbzHT-180" value="" style="html=1;verticalAlign=bottom;endArrow=open;dashed=1;endSize=8;edgeStyle=elbowEdgeStyle;elbow=vertical;curved=0;rounded=0;" edge="1" parent="1" source="hi3D_tC1tFswLXesbzHT-178" target="hi3D_tC1tFswLXesbzHT-171">
          <mxGeometry relative="1" as="geometry">
            <mxPoint x="660" y="960" as="targetPoint" />
            <Array as="points">
              <mxPoint x="920" y="930" />
              <mxPoint x="400" y="680" />
              <mxPoint x="265" y="820" />
              <mxPoint x="195" y="813" />
            </Array>
            <mxPoint x="395" y="700" as="sourcePoint" />
          </mxGeometry>
        </mxCell>
      </root>
    </mxGraphModel>
  </diagram>
</mxfile>
